<svg width="25" height="24" viewBox="0 0 25 24" fill="none" xmlns="http://www.w3.org/2000/svg">
<g clip-path="url(#clip0_201_7)">
<path d="M12.5018 5.84719C9.09678 5.84719 6.34878 8.59519 6.34878 12.0002C6.34878 15.4052 9.09678 18.1532 12.5018 18.1532C15.9068 18.1532 18.6548 15.4052 18.6548 12.0002C18.6548 8.59519 15.9068 5.84719 12.5018 5.84719ZM12.5018 15.9992C10.2998 15.9992 8.50278 14.2022 8.50278 12.0002C8.50278 9.79819 10.2998 8.00119 12.5018 8.00119C14.7038 8.00119 16.5008 9.79819 16.5008 12.0002C16.5008 14.2022 14.7038 15.9992 12.5018 15.9992ZM18.9068 4.16119C18.1118 4.16119 17.4698 4.80319 17.4698 5.59819C17.4698 6.39319 18.1118 7.03519 18.9068 7.03519C19.7018 7.03519 20.3438 6.39619 20.3438 5.59819C20.344 5.40942 20.307 5.22245 20.2349 5.048C20.1627 4.87354 20.0569 4.71504 19.9234 4.58155C19.7899 4.44807 19.6314 4.34223 19.457 4.2701C19.2825 4.19796 19.0956 4.16096 18.9068 4.16119ZM24.4958 12.0002C24.4958 10.3442 24.5108 8.70319 24.4178 7.05019C24.3248 5.13019 23.8868 3.42619 22.4828 2.02219C21.0758 0.615193 19.3748 0.180193 17.4548 0.0871931C15.7988 -0.00580693 14.1578 0.00919311 12.5048 0.00919311C10.8488 0.00919311 9.20778 -0.00580693 7.55479 0.0871931C5.63479 0.180193 3.93079 0.618193 2.52679 2.02219C1.11979 3.42919 0.684786 5.13019 0.591786 7.05019C0.498786 8.70619 0.513786 10.3472 0.513786 12.0002C0.513786 13.6532 0.498786 15.2972 0.591786 16.9502C0.684786 18.8702 1.12279 20.5742 2.52679 21.9782C3.93379 23.3852 5.63479 23.8202 7.55479 23.9132C9.21078 24.0062 10.8518 23.9912 12.5048 23.9912C14.1608 23.9912 15.8018 24.0062 17.4548 23.9132C19.3748 23.8202 21.0788 23.3822 22.4828 21.9782C23.8898 20.5712 24.3248 18.8702 24.4178 16.9502C24.5138 15.2972 24.4958 13.6562 24.4958 12.0002ZM21.8558 19.0742C21.6368 19.6202 21.3728 20.0282 20.9498 20.4482C20.5268 20.8712 20.1218 21.1352 19.5758 21.3542C17.9978 21.9812 14.2508 21.8402 12.5018 21.8402C10.7528 21.8402 7.00279 21.9812 5.42479 21.3572C4.87879 21.1382 4.47079 20.8742 4.05079 20.4512C3.62779 20.0282 3.36379 19.6232 3.14479 19.0772C2.52079 17.4962 2.66179 13.7492 2.66179 12.0002C2.66179 10.2512 2.52079 6.50119 3.14479 4.92319C3.36379 4.37719 3.62779 3.96919 4.05079 3.54919C4.47379 3.12919 4.87879 2.86219 5.42479 2.64319C7.00279 2.01919 10.7528 2.16019 12.5018 2.16019C14.2508 2.16019 18.0008 2.01919 19.5788 2.64319C20.1248 2.86219 20.5328 3.12619 20.9528 3.54919C21.3758 3.97219 21.6398 4.37719 21.8588 4.92319C22.4828 6.50119 22.3418 10.2512 22.3418 12.0002C22.3418 13.7492 22.4828 17.4962 21.8558 19.0742Z" fill="#E61F5A"/>
</g>
<defs>
<clipPath id="clip0_201_7">
<rect width="24" height="24" fill="white" transform="translate(0.5)"/>
</clipPath>
</defs>
</svg>
