<svg width="46" height="44" viewBox="0 0 46 44" fill="none" xmlns="http://www.w3.org/2000/svg">
<path d="M37.6106 12.9904C38.3019 14.1878 38.2092 15.6136 37.3678 16.711L18.894 40.8182C18.1321 41.8123 16.8777 42.3191 15.5949 42.0729C14.3387 41.8313 13.3427 40.9156 12.9971 39.6841L10.2636 29.9555L9.97892 28.9435L9.24493 28.191L2.18649 20.9595C1.29275 20.0444 0.997761 18.724 1.41662 17.5154C1.83117 16.3206 2.87089 15.4536 4.15278 15.2856L34.2671 11.3404C35.6382 11.1604 36.9193 11.793 37.6106 12.9904Z" fill="white"/>
<path d="M10.2637 29.9555L12.9971 39.6841C13.3428 40.9157 14.3387 41.8313 15.5949 42.0729C16.8777 42.3192 18.1322 41.8124 18.894 40.8182L37.3678 16.7111C38.2092 15.6137 38.3019 14.1879 37.6106 12.9905L9.97899 28.9436L10.2637 29.9555Z" fill="white"/>
<path d="M21.2233 22.4515C21.5044 22.9385 21.338 23.5616 20.8504 23.8431L10.2637 29.9553L9.97902 28.9434L9.24503 28.1909L19.8317 22.0787C20.3193 21.7973 20.9421 21.9646 21.2233 22.4515Z" fill="url(#paint0_linear_1_491)"/>
<path d="M10.2637 29.9554L20.8504 23.8432C21.338 23.5617 21.5045 22.9387 21.2233 22.4517L9.97905 28.9435L10.2637 29.9554Z" fill="url(#paint1_linear_1_491)"/>
<defs>
<linearGradient id="paint0_linear_1_491" x1="17.4078" y1="23.5441" x2="18.5454" y2="25.8251" gradientUnits="userSpaceOnUse">
<stop stop-color="#747DEF"/>
<stop offset="1" stop-color="#5E3BE1"/>
</linearGradient>
<linearGradient id="paint1_linear_1_491" x1="17.9029" y1="24.4017" x2="18.507" y2="25.5259" gradientUnits="userSpaceOnUse">
<stop stop-color="#747DEF"/>
<stop offset="1" stop-color="#5E3BE1"/>
</linearGradient>
</defs>
</svg>
